<svg id="dislike" xmlns="http://www.w3.org/2000/svg" width="16.171" height="16.632" viewBox="0 0 16.171 16.632">
  <path id="Path_102" data-name="Path 102" d="M22.308,5.324a2.454,2.454,0,0,0,.146-.7,2.215,2.215,0,0,0-.79-1.805,2.126,2.126,0,0,0-.237-1.332A3.032,3.032,0,0,0,19.265.145a10.074,10.074,0,0,0-2.783-.1A35.019,35.019,0,0,0,11.846.3l-.817.1a1.444,1.444,0,0,0-.835-.264H8.072A1.448,1.448,0,0,0,6.625,1.582V7.234A1.448,1.448,0,0,0,8.072,8.681h2.122a1.435,1.435,0,0,0,.689-.174,3.736,3.736,0,0,0,.682,1.023.372.372,0,0,0,.056.049c1.092.838,2.379,3.857,2.835,5.089a2.377,2.377,0,0,0,.292,1.659.868.868,0,0,0,.671.306,2.215,2.215,0,0,0,1.77-.859c.546-.758.577-1.892.09-3.374a6.068,6.068,0,0,1-.435-2.021c.188.042.372.08.55.111h0a10.915,10.915,0,0,0,1.711.219,3.836,3.836,0,0,0,2.793-.668A1.854,1.854,0,0,0,22.343,7.9a2.121,2.121,0,0,0,.452-1.2A2.113,2.113,0,0,0,22.308,5.324ZM10.194,7.745H8.072a.508.508,0,0,1-.508-.508V1.585a.508.508,0,0,1,.508-.508h2.122a.508.508,0,0,1,.508.508V7.237A.506.506,0,0,1,10.194,7.745Zm11.189.337a1.393,1.393,0,0,1,.163.456.85.85,0,0,1-.282.814c-.664.605-2.577.466-3.645.23l-.045-.01c-.191-.035-.4-.077-.605-.122a.758.758,0,0,0-.758.136c-.463.41-.41,1.343.17,3.113a2.962,2.962,0,0,1,.042,2.529,1.244,1.244,0,0,1-.981.47,2.119,2.119,0,0,1-.045-1.009.533.533,0,0,0-.021-.233c-.066-.177-1.593-4.358-3.155-5.6a2.951,2.951,0,0,1-.647-1.193,1.471,1.471,0,0,0,.066-.431V1.585a1.474,1.474,0,0,0-.031-.306l.351-.042h0A34.278,34.278,0,0,1,16.486.991h.049a9.156,9.156,0,0,1,2.536.077,2.188,2.188,0,0,1,1.53.873,1.214,1.214,0,0,1,.1.911.459.459,0,0,0,.16.532,1.33,1.33,0,0,1,.494,1.784.458.458,0,0,0,.063.567,1.311,1.311,0,0,1,.435.932,1.292,1.292,0,0,1-.39.817A.458.458,0,0,0,21.383,8.083Z" transform="translate(-6.625 0)" fill="#3d3d3d"/>
</svg>
