<svg id="error" xmlns="http://www.w3.org/2000/svg" width="17.452" height="17.452" viewBox="0 0 17.452 17.452">
  <g id="Group_23" data-name="Group 23" transform="translate(0)">
    <path id="Path_24" data-name="Path 24" d="M8.726,17.452a8.726,8.726,0,1,1,8.726-8.726A8.735,8.735,0,0,1,8.726,17.452Zm0-16A7.272,7.272,0,1,0,16,8.726,7.28,7.28,0,0,0,8.726,1.454Z" fill="#3d3d3d"/>
  </g>
  <g id="Group_24" data-name="Group 24" transform="translate(2.344 2.343)">
    <path id="Path_25" data-name="Path 25" d="M12.038,12.766a.73.73,0,0,1-.515-.212L.213,1.241A.727.727,0,1,1,1.241.213l11.31,11.312a.728.728,0,0,1,0,1.028.72.72,0,0,1-.513.214Z" fill="#3d3d3d"/>
  </g>
</svg>
