<svg id="dislike" xmlns="http://www.w3.org/2000/svg" width="17.641" height="18.099" viewBox="0 0 17.641 18.099">
  <path id="Path_102" data-name="Path 102" d="M23.734,12.306a2.665,2.665,0,0,1,.159.757,2.407,2.407,0,0,1-.861,1.964,2.308,2.308,0,0,1-.258,1.45,3.308,3.308,0,0,1-2.36,1.465,11.017,11.017,0,0,1-3.035.106,38.3,38.3,0,0,1-5.058-.276l-.892-.106a1.578,1.578,0,0,1-.911.288H8.2a1.578,1.578,0,0,1-1.578-1.575V10.228A1.578,1.578,0,0,1,8.2,8.653h2.315a1.569,1.569,0,0,1,.751.189,4.065,4.065,0,0,1,.744-1.113.406.406,0,0,1,.061-.053c1.191-.912,2.6-4.2,3.092-5.538A2.581,2.581,0,0,1,15.485.333.948.948,0,0,1,16.217,0a2.419,2.419,0,0,1,1.931.935c.6.825.63,2.059.1,3.672a6.589,6.589,0,0,0-.474,2.2c.2-.045.406-.087.6-.121h0a11.935,11.935,0,0,1,1.867-.238,4.192,4.192,0,0,1,3.047.727A2.014,2.014,0,0,1,23.772,9.5a2.172,2.172,0,0,1-.038,2.8ZM10.518,9.671H8.2a.554.554,0,0,0-.554.553v6.151a.554.554,0,0,0,.554.553h2.315a.554.554,0,0,0,.554-.553V10.224A.552.552,0,0,0,10.518,9.671ZM22.725,9.3a1.514,1.514,0,0,0,.178-.5.924.924,0,0,0-.307-.886c-.725-.659-2.812-.507-3.977-.25l-.049.011c-.209.038-.433.083-.66.132a.829.829,0,0,1-.827-.148c-.5-.447-.448-1.461.186-3.388.417-1.264.433-2.218.046-2.752a1.358,1.358,0,0,0-1.07-.511,2.3,2.3,0,0,0-.049,1.1.579.579,0,0,1-.023.254c-.072.193-1.738,4.743-3.441,6.09a3.208,3.208,0,0,0-.706,1.3,1.6,1.6,0,0,1,.072.469v6.147a1.6,1.6,0,0,1-.034.333l.383.045h0a37.485,37.485,0,0,0,4.933.269h.053a10.013,10.013,0,0,0,2.766-.083,2.388,2.388,0,0,0,1.67-.95,1.318,1.318,0,0,0,.11-.992.5.5,0,0,1,.175-.579,1.445,1.445,0,0,0,.539-1.942.5.5,0,0,1,.068-.617,1.425,1.425,0,0,0,.474-1.014,1.405,1.405,0,0,0-.425-.89A.5.5,0,0,1,22.725,9.3Z" transform="translate(-6.625 0)" fill="#3d3d3d"/>
</svg>
