<svg xmlns="http://www.w3.org/2000/svg" width="74.28" height="69.722" viewBox="0 0 74.28 69.722">
  <path id="Path_236" data-name="Path 236" d="M147.081,432.683l8.811-31.475a10.881,10.881,0,0,1,10.869-8.334c6,0,10.859,3.736,10.869,8.334l.064,34.28m-16.631-41.945,1.4-4.994c.732-2.612,2.706-5,6.2-5s6.323,2.176,6.326,4.854l.013,6.528m42.732,37.752-8.811-31.475a10.881,10.881,0,0,0-10.869-8.334c-6,0-10.859,3.736-10.866,8.334l-.067,34.28m16.631-41.945-1.4-4.994c-.732-2.612-2.706-5-6.2-5s-6.323,2.176-6.326,4.854l-.013,6.528m-29.321,27.493c8.573-.722,16.151,5.137,16.93,13.082s-5.54,14.975-14.11,15.7-16.151-5.134-16.93-13.082,5.54-14.975,14.11-15.7Zm.527,5.377c5.369-.455,10.117,3.216,10.607,8.194m29.959-13.571c8.573-.722,16.151,5.137,16.93,13.082s-5.537,14.975-14.11,15.7-16.151-5.134-16.93-13.082,5.541-14.975,14.11-15.7Zm.527,5.377c5.369-.455,10.121,3.216,10.607,8.194m-30.271-8.051a4.287,4.287,0,1,1-4.61,4.275,4.453,4.453,0,0,1,4.61-4.275Zm-4.61-19.333a4.624,4.624,0,0,1,9.221,0" transform="translate(-145.31 -382.549)" fill="none" stroke="#0064a2" stroke-miterlimit="10" stroke-width="2"/>
</svg>
